<?xml version="1.0" encoding="UTF-8" standalone="no"?>
<!-- Generator: Adobe Illustrator 16.0.0, SVG Export Plug-In . SVG Version: 6.00 Build 0)  -->

<svg
   xmlns:dc="http://purl.org/dc/elements/1.1/"
   xmlns:cc="http://creativecommons.org/ns#"
   xmlns:rdf="http://www.w3.org/1999/02/22-rdf-syntax-ns#"
   xmlns:svg="http://www.w3.org/2000/svg"
   xmlns="http://www.w3.org/2000/svg"
   xmlns:sodipodi="http://sodipodi.sourceforge.net/DTD/sodipodi-0.dtd"
   xmlns:inkscape="http://www.inkscape.org/namespaces/inkscape"
   version="1.1"
   id="Capa_1"
   x="0px"
   y="0px"
   width="612px"
   height="612px"
   viewBox="0 0 612 612"
   style="enable-background:new 0 0 612 612;"
   xml:space="preserve"
   inkscape:version="0.91 r13725"
   sodipodi:docname="icon.svg"><metadata
     id="metadata3472"><rdf:RDF><cc:Work
         rdf:about=""><dc:format>image/svg+xml</dc:format><dc:type
           rdf:resource="http://purl.org/dc/dcmitype/StillImage" /><dc:title /></cc:Work></rdf:RDF></metadata><defs
     id="defs3470"><marker
       inkscape:stockid="TriangleOutS"
       orient="auto"
       refY="0.0"
       refX="0.0"
       id="TriangleOutS"
       style="overflow:visible"
       inkscape:isstock="true"><path
         id="path4330"
         d="M 5.77,0.0 L -2.88,5.0 L -2.88,-5.0 L 5.77,0.0 z "
         style="fill-rule:evenodd;stroke:#040404;stroke-width:1pt;stroke-opacity:1;fill:#000000;fill-opacity:1"
         transform="scale(0.2)" /></marker><marker
       inkscape:stockid="TriangleInS"
       orient="auto"
       refY="0.0"
       refX="0.0"
       id="TriangleInS"
       style="overflow:visible"
       inkscape:isstock="true"><path
         id="path4321"
         d="M 5.77,0.0 L -2.88,5.0 L -2.88,-5.0 L 5.77,0.0 z "
         style="fill-rule:evenodd;stroke:#040404;stroke-width:1pt;stroke-opacity:1;fill:#000000;fill-opacity:1"
         transform="scale(-0.2)" /></marker><marker
       inkscape:stockid="TriangleInM"
       orient="auto"
       refY="0.0"
       refX="0.0"
       id="TriangleInM"
       style="overflow:visible"
       inkscape:isstock="true"><path
         id="path4318"
         d="M 5.77,0.0 L -2.88,5.0 L -2.88,-5.0 L 5.77,0.0 z "
         style="fill-rule:evenodd;stroke:#040404;stroke-width:1pt;stroke-opacity:1;fill:#000000;fill-opacity:1"
         transform="scale(-0.4)" /></marker><marker
       inkscape:stockid="EmptyTriangleInS"
       orient="auto"
       refY="0"
       refX="0"
       id="EmptyTriangleInS"
       style="overflow:visible"
       inkscape:isstock="true"><path
         inkscape:connector-curvature="0"
         id="path4399"
         d="m 5.77,0 -8.65,5 0,-10 8.65,5 z"
         style="fill:#000000;fill-opacity:1;fill-rule:evenodd;stroke:#040404;stroke-width:1pt;stroke-opacity:1"
         transform="matrix(-0.2,0,0,-0.2,0.6,0)" /></marker><marker
       inkscape:stockid="EmptyTriangleOutS"
       orient="auto"
       refY="0"
       refX="0"
       id="EmptyTriangleOutS"
       style="overflow:visible"
       inkscape:isstock="true"><path
         inkscape:connector-curvature="0"
         id="path4408"
         d="m 5.77,0 -8.65,5 0,-10 8.65,5 z"
         style="fill:#000000;fill-opacity:1;fill-rule:evenodd;stroke:#040404;stroke-width:1pt;stroke-opacity:1"
         transform="matrix(0.2,0,0,0.2,-0.6,0)" /></marker></defs><sodipodi:namedview
     pagecolor="#ffffff"
     bordercolor="#666666"
     borderopacity="1"
     objecttolerance="10"
     gridtolerance="10"
     guidetolerance="10"
     inkscape:pageopacity="0"
     inkscape:pageshadow="2"
     inkscape:window-width="1366"
     inkscape:window-height="710"
     id="namedview3468"
     showgrid="true"
     inkscape:zoom="0.97862652"
     inkscape:cx="195.99414"
     inkscape:cy="431.67968"
     inkscape:window-x="0"
     inkscape:window-y="30"
     inkscape:window-maximized="1"
     inkscape:current-layer="g3433"><inkscape:grid
       type="xygrid"
       id="grid4601" /></sodipodi:namedview><g
     id="g3433"><path
       inkscape:connector-curvature="0"
       id="path4638"
       d="m 44.569715,462.18692 0,-18.89842 74.457155,0 c 69.34044,0 74.86274,0.64935 80.35835,9.44921 5.61038,8.98369 11.01793,9.44921 109.76236,9.44921 98.74443,0 104.15198,-0.46537 109.76235,-9.44921 5.49562,-8.79986 11.01792,-9.44921 80.35836,-9.44921 l 74.45717,0 0,18.89842 0,18.89842 -264.57788,0 -264.577865,0 0,-18.89842 z M 229.92573,433.83928 c -5.47482,-8.76658 -11.01792,-9.4492 -76.73013,-9.4492 l -70.829064,0 0,-151.18737 0,-151.18735 226.781044,0 226.78104,0 0,151.18735 0,151.18737 -70.82906,0 c -65.71222,0 -71.25531,0.68262 -76.73013,9.4492 -5.48934,8.7898 -11.01793,9.44922 -79.22185,9.44922 -68.20392,0 -73.73251,-0.65942 -79.22185,-9.44922 z"
       style="fill:#ffffff;fill-opacity:1" /><path
       style="fill:#000000;stroke:#ffffff;stroke-width:12.02205658;stroke-miterlimit:4;stroke-dasharray:none;stroke-opacity:1"
       d="m 209.6666,353.64318 c -7.53532,-2.1169 -16.07231,-5.64661 -18.97109,-7.84379 -25.60037,-19.40435 -35.87672,-38.63473 -35.82345,-67.0373 0.0843,-45.03066 32.02961,-76.79053 77.25105,-76.80302 36.54807,-0.009 53.71699,12.94403 90.54825,68.31955 34.13549,51.32249 51.80963,62.35516 81.64089,50.96253 40.60415,-15.50687 37.73998,-73.98748 -4.2397,-86.5649 -17.86023,-5.35105 -22.9454,-7.24204 -40.2937,9.16528 l -15.27573,14.44716 -9.03636,-13.89159 -9.03634,-13.89157 8.91223,-9.19512 c 4.90173,-5.05732 7.69041,-6.90186 15.97482,-11.4323 12.5608,-6.86907 18.4559,-8.21894 35.49298,-8.12732 23.40507,0.12578 36.32809,4.8001 52.48042,18.982 16.07868,14.11726 24.81462,34.58269 24.77065,58.0293 -0.0843,45.03064 -32.02963,76.79052 -77.25107,76.80301 -35.07714,0.009 -56.56668,-15.31425 -86.44853,-61.64539 -25.44107,-39.44584 -33.78129,-49.22803 -47.72762,-55.97933 -14.99795,-7.26038 -25.75365,-7.3438 -41.22019,-0.31965 -34.21274,15.53774 -34.30341,65.26129 -0.14915,81.79508 21.95297,10.62726 33.59762,14.18128 51.35271,-8.1429 l 11.60783,-12.08031 8.93856,14.37912 8.93857,14.37911 -10.64074,10.20109 c -21.87634,20.97246 -44.389,23.19049 -71.79527,15.49126 z"
       id="path4642"
       inkscape:connector-curvature="0"
       sodipodi:nodetypes="csscsssscccssssscssssscccscc" /></g><g
     id="g3438" /><g
     id="g3440" /><g
     id="g3442" /><g
     id="g3444" /><g
     id="g3446" /><g
     id="g3448" /><g
     id="g3450" /><g
     id="g3452" /><g
     id="g3454" /><g
     id="g3456" /><g
     id="g3458" /><g
     id="g3460" /><g
     id="g3462" /><g
     id="g3464" /><g
     id="g3466" /></svg>